# xmcd
#
# Track frame offsets: 
#        150
#        16067
#        33307
#        57971
#        83519
#        102276
#        124163
#        145842
#        162799
#        188559
#        203309
#        225358
#        240476
#
# Disc length: 3763 seconds
#
# Revision: 3
# Processed by: cddbd v1.5.2PL0 Copyright (c) Steve Scherf et al.
# Submitted via: ExactAudioCopyFreeDBPlugin 1.0
#
DISCID=8d0eb10d
DTITLE=Tinariwen - Imidiwan: Companions
DYEAR=2009
DGENRE=Blues
TTITLE0=Imidiwan Afrik Temdam - My Friends From All Over Africa
TTITLE1=Lulla
TTITLE2=Tenhert - The Doe
TTITLE3=Enseqi Ehad Didagh - I Lie Down Tonight
TTITLE4=Tahult In - My Salutation
TTITLE5=Tamodjerazt Assis - Regret Is Like A Worm
TTITLE6=Intitlayaghen - Intitlayaghen
TTITLE7=Imazeghen N Adagh - Toureg Of The Adagh
TTITLE8=Tenalle Chegret - The Long Thread
TTITLE9=Kel Tamashek - The Tamashek People
TTITLE10=Assuf Ag Assuf - Assuf Son Of Assuf
TTITLE11=Chabiba - Youth
TTITLE12=Ere Tasfata Adounia - He Who Values Life
EXTD=
EXTT0=
EXTT1=
EXTT2=
EXTT3=
EXTT4=
EXTT5=
EXTT6=
EXTT7=
EXTT8=
EXTT9=
EXTT10=
EXTT11=
EXTT12=
PLAYORDER=
